<?xml version="1.0" encoding="utf-8"?>

<!-- License Agreement at http://iconmonstr.com/license/ -->

<!DOCTYPE svg PUBLIC "-//W3C//DTD SVG 1.1//EN" "http://www.w3.org/Graphics/SVG/1.1/DTD/svg11.dtd">
<svg version="1.1" xmlns="http://www.w3.org/2000/svg" xmlns:xlink="http://www.w3.org/1999/xlink" x="0px" y="0px"
	 width="512px" height="512px" viewBox="0 0 512 512" enable-background="new 0 0 512 512" xml:space="preserve">
<path id="tools-9-icon" d="M347.594,259.237l-78.206-33.75c-3.533-1.533-7.279-2.516-11.11-2.922l-7.757-0.816l-21.091-18.576
	l5.568-12.848l28.28,1.986l5.898,5.102c2.913,2.52,6.195,4.58,9.729,6.111l33.74,14.561L347.594,259.237z M368.488,260.667
	L253.555,125.333h22.34c15.33,0,29.891,6.719,39.839,18.383l99.753,116.951H368.488z M327.861,177.296
	c1.684-1.43,1.888-3.955,0.456-5.637l-18-21.168c-1.431-1.682-3.956-1.889-5.638-0.455c-1.684,1.43-1.888,3.955-0.456,5.637
	l18,21.168C323.656,178.526,326.184,178.726,327.861,177.296z M102.362,260.683c0.213-0.002,0.424-0.016,0.638-0.016h37.44
	l25.812-39.459c2.749-4.203,7.208-7.004,12.189-7.648c9.435-1.227,18.298-6.406,23.913-14.994
	c7.312-11.176,7.138-25.082,0.713-35.82l-16.623,25.412c-8.101,2.197-23.429-7.83-24.66-16.131l16.624-25.412
	c-12.414-1.584-25.227,3.828-32.537,15.004c-5.617,8.586-6.814,18.781-4.154,27.918c1.405,4.826,0.627,10.025-2.125,14.232
	L102.362,260.683z M462,333.667c0,29.271-23.729,53-53,53H103c-29.271,0-53-23.729-53-53s23.729-53,53-53h306
	C438.271,280.667,462,304.396,462,333.667z M119.543,333.665c0-9.49-7.697-17.186-17.188-17.186s-17.188,7.695-17.188,17.186
	c0,9.494,7.697,17.188,17.188,17.188S119.543,343.159,119.543,333.665z M430.043,333.665c0-9.49-7.697-17.186-17.188-17.186
	s-17.188,7.695-17.188,17.186c0,9.494,7.697,17.188,17.188,17.188S430.043,343.159,430.043,333.665z"/>
</svg>
