<?xml version="1.0" encoding="utf-8"?>

<!-- The icon can be used freely in both personal and commercial projects with no attribution required, but always appreciated. 
You may NOT sub-license, resell, rent, redistribute or otherwise transfer the icon without express written permission from iconmonstr.com -->

<!DOCTYPE svg PUBLIC "-//W3C//DTD SVG 1.1//EN" "http://www.w3.org/Graphics/SVG/1.1/DTD/svg11.dtd">
<svg version="1.1" xmlns="http://www.w3.org/2000/svg" xmlns:xlink="http://www.w3.org/1999/xlink" x="0px" y="0px"
	 width="512px" height="512px" viewBox="0 0 512 512" enable-background="new 0 0 512 512" xml:space="preserve">
<path id="antenna-5-icon" d="M326.227,50c28.642,0,57.283,10.927,79.136,32.779c21.854,21.853,32.78,50.494,32.78,79.136h-23.168
	c0-22.713-8.664-45.426-25.993-62.755c-17.33-17.329-40.042-25.993-62.755-25.993V50z M326.229,117.22
	c11.438,0,22.878,4.364,31.604,13.092c8.727,8.726,13.091,20.164,13.091,31.604h23.369c0-17.419-6.646-34.838-19.937-48.128
	c-13.289-13.29-30.708-19.935-48.127-19.935V117.22z M124.155,462l11.087-10.004c19.376-17.477,48.827-17.477,68.203,0.002
	L214.532,462h50.298l-95.485-86.145L73.857,462H124.155z M264.5,265.053l45.309-72.714c2.673-4.285,7.633-6.593,12.631-5.874
	c7.862,1.129,16.107-1.782,21.476-8.401c8.129-10.014,6.601-24.721-3.416-32.847c-10.016-8.128-24.725-6.597-32.85,3.419
	c-4.274,5.265-5.874,11.826-4.977,18.048c0.722,5.003-1.585,9.964-5.875,12.635l-72.718,45.312
	C233.017,241.529,247.602,256.115,264.5,265.053z M359.488,340.87c5.006,51.559-80.781,54.043-139.571,30.143
	c-99.491-40.449-140.163-142.468-113.801-220.757c12.232-36.324,26.95-55.883,92.196-13.418
	c16.009,10.42,33.031,23.992,50.014,39.606l-21.128,13.166c-14.889-13.523-29.653-25.224-43.399-34.308
	c-80.585-53.267-24.823,49.329,25.205,104.129c46.414,50.841,153.942,128.179,113.999,47.776
	c-6.033-12.144-15.165-26.236-26.174-40.954l13.568-21.772C333.224,274.945,356.854,313.729,359.488,340.87z"/>
</svg>
