<?xml version="1.0" encoding="utf-8"?>

<!-- License Agreement at http://iconmonstr.com/license/ -->

<!DOCTYPE svg PUBLIC "-//W3C//DTD SVG 1.1//EN" "http://www.w3.org/Graphics/SVG/1.1/DTD/svg11.dtd">
<svg version="1.1" xmlns="http://www.w3.org/2000/svg" xmlns:xlink="http://www.w3.org/1999/xlink" x="0px" y="0px"
	 width="512px" height="512px" viewBox="0 0 512 512" enable-background="new 0 0 512 512" xml:space="preserve">
<path id="trademark-3-icon" d="M362.558,204.337v111.218h-24.05v-63.543l-18.87,63.543h-26.297l-18.796-63.509v63.509h-24.05
	V205.833v-1.496h1.496h33.817l20.783,69.328l20.576-69.328H362.558z M149.441,204.337v22.812h32.114v88.405h25.6v-88.405h31.283
	v-22.812H149.441z M373.38,138.62c64.869,64.868,64.882,169.879,0,234.759c-64.872,64.872-169.878,64.882-234.759,0
	c-64.871-64.87-64.883-169.877-0.001-234.759C203.49,73.751,308.499,73.738,373.38,138.62z M256,50C142.229,50,50,142.229,50,256
	c0,113.77,92.229,206,206,206c113.771,0,206-92.23,206-206C462,142.229,369.771,50,256,50z"/>
</svg>
