<?xml version="1.0" encoding="utf-8"?>

<!-- License Agreement at http://iconmonstr.com/license/ -->

<!DOCTYPE svg PUBLIC "-//W3C//DTD SVG 1.1//EN" "http://www.w3.org/Graphics/SVG/1.1/DTD/svg11.dtd">
<svg version="1.1" xmlns="http://www.w3.org/2000/svg" xmlns:xlink="http://www.w3.org/1999/xlink" x="0px" y="0px"
	 width="512px" height="512px" viewBox="0 0 512 512" enable-background="new 0 0 512 512" xml:space="preserve">
<path id="smiley-lips-sealed-icon" d="M256,50C142.229,50,50,142.229,50,256c0,113.771,92.229,206,206,206
	c113.771,0,206-92.229,206-206C462,142.229,369.771,50,256,50z M256,422c-91.74,0-166-74.243-166-166c0-91.741,74.244-166,166-166
	c91.741,0,166,74.243,166,166C422,347.742,347.757,422,256,422z M199.666,181.5c-17.12,0-31,13.88-31,31s13.88,31,31,31
	c17.121,0,31-13.88,31-31S216.787,181.5,199.666,181.5z M316.333,181.5c-17.121,0-31,13.88-31,31s13.879,31,31,31s31-13.88,31-31
	S333.454,181.5,316.333,181.5z M282.999,321.999l28.962,28.962l-24.042,24.042l-28.961-28.961l-28.962,28.961l-24.042-24.042
	l28.961-28.962l-28.961-28.961l24.042-24.042l28.962,28.962l28.961-28.962l24.042,24.042L282.999,321.999z"/>
</svg>
