<?xml version="1.0" encoding="utf-8"?>

<!-- The icon can be used freely in both personal and commercial projects with no attribution required, but always appreciated. 
You may NOT sub-license, resell, rent, redistribute or otherwise transfer the icon without express written permission from iconmonstr.com -->

<!DOCTYPE svg PUBLIC "-//W3C//DTD SVG 1.1//EN" "http://www.w3.org/Graphics/SVG/1.1/DTD/svg11.dtd">
<svg version="1.1" xmlns="http://www.w3.org/2000/svg" xmlns:xlink="http://www.w3.org/1999/xlink" x="0px" y="0px"
	 width="512px" height="512px" viewBox="0 0 512 512" enable-background="new 0 0 512 512" xml:space="preserve">
<path id="volume-control-4-icon" d="M350.538,184.204c-52.207-52.211-136.861-52.217-189.078,0
	c-52.213,52.211-52.213,136.865,0,189.078c52.209,52.209,136.865,52.217,189.078,0C402.753,321.069,402.753,236.415,350.538,184.204
	z M217.437,264.737l-40.758-40.76l24.557-24.557l40.758,40.758L217.437,264.737z M128.802,176.294l-33.893-33.891l24.75-24.75
	l33.891,33.893C144.444,158.89,136.146,167.188,128.802,176.294z M92.669,278.743c0-5.914,0.322-11.75,0.934-17.5H45.681v35h47.922
	C92.991,290.493,92.669,284.655,92.669,278.743z M256.001,115.411c5.912,0,11.748,0.322,17.498,0.934V68.423h-35v47.922
	C244.251,115.733,250.087,115.411,256.001,115.411z M383.198,176.292l33.891-33.891l-24.748-24.748l-33.891,33.891
	C367.556,158.888,375.854,167.188,383.198,176.292z M418.397,261.243c0.613,5.75,0.936,11.586,0.936,17.5
	c0,5.912-0.322,11.75-0.936,17.5h47.922v-35H418.397z M128.804,381.192l-37.639,37.637l24.75,24.748l37.637-37.637
	C144.446,398.599,136.146,390.298,128.804,381.192z M358.45,405.942l33.889,33.891l24.75-24.748l-33.891-33.893
	C375.854,390.298,367.556,398.599,358.45,405.942z M194.415,127.032c3.533-1.434,7.102-2.732,10.701-3.91l-11.371-27.477
	l-23.092,9.578l11.363,27.457C186.058,130.638,190.188,128.747,194.415,127.032z M307.909,123.468l11.555-27.396l23.031,9.723
	l-11.547,27.381c-4.348-2.234-8.799-4.291-13.363-6.143C314.39,125.737,311.161,124.556,307.909,123.468z M402.062,204.761
	l27.457-11.365l9.578,23.092L411.62,227.86c-1.178-3.602-2.477-7.172-3.91-10.703C405.997,212.931,404.106,208.8,402.062,204.761z
	 M109.94,352.728l-27.457,11.363l-9.58-23.092l27.477-11.373c1.178,3.6,2.477,7.17,3.91,10.701
	C106.003,344.554,107.896,348.687,109.94,352.728z M438.671,342.206l-9.725,23.031l-27.379-11.545
	c2.236-4.348,4.291-8.801,6.143-13.365c1.297-3.195,2.477-6.422,3.564-9.674L438.671,342.206z M100.726,226.833L73.327,215.28
	l9.725-23.031l27.381,11.545c-2.236,4.348-4.293,8.799-6.143,13.363C102.993,220.353,101.812,223.581,100.726,226.833z"/>
</svg>
