<?xml version="1.0" encoding="utf-8"?>

<!-- License Agreement at http://iconmonstr.com/license/ -->

<!DOCTYPE svg PUBLIC "-//W3C//DTD SVG 1.1//EN" "http://www.w3.org/Graphics/SVG/1.1/DTD/svg11.dtd">
<svg version="1.1" xmlns="http://www.w3.org/2000/svg" xmlns:xlink="http://www.w3.org/1999/xlink" x="0px" y="0px"
	 width="512px" height="512px" viewBox="0 0 512 512" enable-background="new 0 0 512 512" xml:space="preserve">
<path id="trademark-icon" d="M373.38,138.62c64.869,64.868,64.882,169.879,0,234.759c-64.872,64.872-169.878,64.882-234.759,0
	c-64.87-64.87-64.882-169.877,0-234.759C203.491,73.751,308.499,73.738,373.38,138.62z M256,50C142.229,50,50,142.229,50,256
	c0,113.77,92.229,206,206,206c113.771,0,206-92.23,206-206C462,142.229,369.771,50,256,50z M301.113,346.146h45.886l-49.516-71.723
	c60.149-19.653,45.253-112.57-17.299-112.57h-93.268v183.311h38.031v-67.985h27.719L301.113,346.146z M226.433,200.095h53.752
	c22.802,0,22.808,38.843,0,38.843h-53.752V200.095z"/>
</svg>
